<?xml version="1.0" encoding="UTF-8"?>
<svg xmlns="http://www.w3.org/2000/svg" xmlns:xlink="http://www.w3.org/1999/xlink" width="2400" height="2400" viewBox="0 0 2400 2400">

<path fill-rule="evenodd" fill="rgb(98.826599%, 89.0625%, 76.951599%)" fill-opacity="1" d="M 822.363281 673.769531 L 807.726562 662.011719 L 773.960938 646.03125 L 754.710938 667.429688 L 754.898438 703.859375 C 754.898438 703.859375 771.53125 737.53125 773.527344 737.390625 C 775.523438 737.25 799.308594 733.078125 799.308594 733.078125 L 818.046875 727.238281 L 828.132812 726.230469 L 822.363281 673.769531 "/>
<path fill-rule="evenodd" fill="rgb(98.826599%, 89.0625%, 76.951599%)" fill-opacity="1" d="M 1624.429688 1074.839844 L 1637.648438 1116.371094 L 1642.78125 1139.371094 L 1646.351562 1164.351562 L 1650.691406 1175.628906 L 1658.359375 1188.410156 L 1668.78125 1189.03125 L 1675.53125 1187.359375 L 1680.421875 1198.898438 L 1692.691406 1204.359375 L 1708.441406 1196 L 1721.828125 1189.941406 L 1728.320312 1182.128906 C 1729.75 1164.851562 1732.191406 1161.898438 1732.480469 1141.519531 L 1732.578125 1134.550781 L 1716.410156 1112.308594 L 1684.960938 1068.640625 L 1672.921875 1042.03125 C 1644.171875 1042.398438 1634.398438 1047.800781 1624.429688 1074.839844 "/>
<path fill-rule="evenodd" fill="rgb(98.826599%, 35.693359%, 35.693359%)" fill-opacity="1" d="M 942.074219 958.238281 C 927.109375 1188.199219 805.453125 829.839844 769.542969 735.839844 L 827.1875 710.730469 C 908.050781 848.609375 926.894531 861.191406 989.382812 957.898438 L 942.074219 958.238281 "/>
<path fill-rule="evenodd" fill="rgb(98.826599%, 35.693359%, 35.693359%)" fill-opacity="1" d="M 886.9375 937.039062 L 878.164062 994.851562 C 908.3125 1052.03125 938.1875 1042.480469 964.6875 1009.488281 C 988.886719 979.371094 1011.859375 947.960938 1035.019531 916.050781 C 1068.011719 870.601562 1101.390625 824.140625 1139.261719 778.941406 C 1206.96875 684.789062 1127.449219 621.21875 1046.769531 670.039062 C 991.320312 703.601562 942.703125 851.980469 886.9375 937.039062 "/>
<path fill-rule="evenodd" fill="rgb(51.367188%, 82.03125%, 85.9375%)" fill-opacity="1" d="M 743.425781 662.679688 L 745.90625 663.519531 L 782.207031 634 L 827.964844 649.371094 L 815.367188 686.859375 L 759.609375 852.789062 L 615.726562 804.449219 L 647.308594 710.449219 C 660.605469 670.878906 703.855469 649.390625 743.425781 662.679688 "/>
<path fill-rule="evenodd" fill="rgb(43.138123%, 72.068787%, 76.171875%)" fill-opacity="1" d="M 777.433594 764.910156 L 753.167969 837.128906 L 630.316406 795.851562 L 654.582031 723.628906 L 777.433594 764.910156 "/>
<path fill-rule="evenodd" fill="rgb(87.889099%, 100%, 54.101562%)" fill-opacity="1" d="M 734.53125 689.148438 L 783.53125 705.609375 L 745.558594 818.621094 L 647.5625 785.699219 L 669.070312 721.679688 C 678.128906 694.730469 707.585938 680.089844 734.53125 689.148438 "/>
<path fill-rule="evenodd" fill="rgb(94.921875%, 56.834412%, 10.984802%)" fill-opacity="1" d="M 831.472656 643.949219 L 782.679688 627.558594 L 780.691406 633.488281 L 829.480469 649.878906 L 831.472656 643.949219 "/>
<path fill-rule="evenodd" fill="rgb(94.921875%, 68.164062%, 18.431091%)" fill-opacity="1" d="M 831.472656 643.949219 L 768.210938 622.699219 L 769.808594 617.941406 L 833.070312 639.199219 L 831.472656 643.949219 "/>
<path fill-rule="evenodd" fill="rgb(100%, 85.546875%, 41.967773%)" fill-opacity="1" d="M 743.839844 576.078125 L 848.582031 611.28125 L 838.578125 641.050781 L 733.835938 605.851562 L 743.839844 576.078125 "/>
<path fill-rule="evenodd" fill="rgb(94.921875%, 56.834412%, 10.984802%)" fill-opacity="1" d="M 743.121094 578.21875 L 737.332031 576.28125 L 728.765625 601.769531 L 734.554688 603.71875 L 743.121094 578.21875 "/>
<path fill-rule="evenodd" fill="rgb(100%, 100%, 100%)" fill-opacity="1" d="M 747.671875 580.800781 L 783.667969 592.890625 L 780.230469 603.121094 L 744.234375 591.03125 L 747.671875 580.800781 "/>
<path fill-rule="evenodd" fill="rgb(100%, 100%, 100%)" fill-opacity="1" d="M 792.351562 595.808594 L 786.5625 593.871094 L 783.125 604.101562 L 788.914062 606.039062 L 792.351562 595.808594 "/>
<path fill-rule="evenodd" fill="rgb(65.818787%, 70.117188%, 34.130859%)" fill-opacity="1" d="M 728.4375 745.300781 C 729.171875 744.898438 729.824219 744.519531 730.203125 744.238281 C 730.105469 743.460938 730.21875 742.800781 730.519531 742.449219 C 730.414062 742.25 730.316406 742.078125 730.242188 741.980469 C 729.972656 742.019531 729.753906 741.960938 729.699219 741.808594 C 729.628906 741.609375 729.898438 741.339844 730.300781 741.191406 C 730.703125 741.039062 731.089844 741.078125 731.160156 741.28125 C 731.214844 741.429688 731.085938 741.609375 730.855469 741.761719 C 730.859375 741.859375 730.886719 742.019531 730.921875 742.199219 C 731.613281 742.03125 732.539062 742.921875 733.082031 744.25 C 733.273438 744.148438 733.441406 744.050781 733.539062 743.980469 C 733.507812 743.699219 733.566406 743.488281 733.710938 743.429688 C 733.910156 743.359375 734.1875 743.628906 734.335938 744.03125 C 734.480469 744.441406 734.441406 744.820312 734.242188 744.890625 C 734.097656 744.949219 733.910156 744.820312 733.761719 744.589844 C 733.640625 744.589844 733.449219 744.628906 733.234375 744.671875 C 733.675781 746.050781 733.53125 747.320312 732.890625 747.640625 C 732.984375 747.808594 733.070312 747.960938 733.136719 748.050781 C 733.40625 748.011719 733.628906 748.070312 733.679688 748.21875 C 733.75 748.410156 733.480469 748.691406 733.078125 748.839844 C 732.675781 748.988281 732.289062 748.949219 732.21875 748.75 C 732.164062 748.601562 732.296875 748.421875 732.523438 748.269531 C 732.515625 748.140625 732.480469 747.929688 732.433594 747.699219 C 731.972656 747.628906 731.457031 747.191406 731.03125 746.519531 C 730.554688 746.550781 729.789062 746.691406 728.941406 746.859375 C 729.402344 748.589844 729.539062 750.378906 729.367188 752.128906 C 731.128906 752.070312 733.210938 752.03125 734.179688 751.859375 C 734.476562 751 734.929688 750.378906 735.421875 750.171875 C 735.410156 749.921875 735.394531 749.691406 735.371094 749.550781 C 735.074219 749.449219 734.878906 749.269531 734.898438 749.101562 C 734.925781 748.859375 735.34375 748.710938 735.835938 748.761719 C 736.324219 748.820312 736.699219 749.058594 736.675781 749.300781 C 736.652344 749.46875 736.425781 749.601562 736.113281 749.628906 C 736.066406 749.738281 736.015625 749.921875 735.960938 750.109375 C 736.757812 750.300781 737.261719 751.679688 737.140625 753.328125 C 737.390625 753.320312 737.613281 753.308594 737.753906 753.28125 C 737.855469 752.980469 738.03125 752.789062 738.203125 752.808594 C 738.445312 752.839844 738.597656 753.261719 738.539062 753.75 C 738.484375 754.238281 738.246094 754.609375 738.007812 754.589844 C 737.832031 754.570312 737.703125 754.339844 737.671875 754.03125 C 737.539062 753.96875 737.324219 753.910156 737.085938 753.839844 C 736.878906 755.21875 736.285156 756.308594 735.613281 756.628906 C 735.882812 757.441406 735.742188 758.71875 735.1875 760.03125 C 735.480469 760.109375 735.742188 760.179688 735.910156 760.210938 C 736.144531 759.910156 736.417969 759.75 736.609375 759.839844 C 736.875 759.960938 736.882812 760.5 736.632812 761.039062 C 736.378906 761.578125 735.960938 761.921875 735.695312 761.800781 C 735.503906 761.710938 735.445312 761.398438 735.527344 761.03125 C 735.398438 760.910156 735.179688 760.761719 734.925781 760.589844 C 734.011719 762.371094 732.617188 763.480469 731.675781 763.160156 C 731.601562 763.421875 731.539062 763.648438 731.515625 763.808594 C 731.816406 764.039062 731.972656 764.308594 731.882812 764.511719 C 731.757812 764.769531 731.21875 764.78125 730.679688 764.53125 C 730.140625 764.28125 729.800781 763.859375 729.925781 763.589844 C 730.015625 763.398438 730.328125 763.339844 730.695312 763.421875 C 730.816406 763.289062 730.984375 763.050781 731.164062 762.769531 C 730.785156 762.25 730.710938 761.320312 730.941406 760.25 C 730.289062 759.660156 728.957031 758.769531 727.59375 757.878906 C 726.832031 759.261719 725.839844 760.539062 724.621094 761.660156 C 726.457031 763.359375 728.65625 765.488281 729.820312 766.300781 C 730.945312 765.75 732.007812 765.578125 732.695312 765.859375 C 732.933594 765.601562 733.140625 765.359375 733.253906 765.199219 C 733.0625 764.808594 733.042969 764.449219 733.234375 764.289062 C 733.496094 764.078125 734.054688 764.351562 734.480469 764.878906 C 734.910156 765.421875 735.042969 766.019531 734.78125 766.230469 C 734.589844 766.378906 734.242188 766.28125 733.902344 766.011719 C 733.746094 766.070312 733.523438 766.191406 733.277344 766.328125 C 733.878906 767.300781 733.019531 769.148438 731.277344 770.648438 C 731.535156 770.890625 731.769531 771.089844 731.929688 771.199219 C 732.320312 771.011719 732.683594 770.988281 732.835938 771.179688 C 733.042969 771.449219 732.78125 772 732.246094 772.429688 C 731.710938 772.859375 731.105469 772.988281 730.898438 772.730469 C 730.746094 772.539062 730.84375 772.191406 731.117188 771.851562 C 731.042969 771.671875 730.894531 771.398438 730.722656 771.101562 C 728.867188 772.46875 726.867188 772.898438 726.0625 772.089844 C 725.851562 772.320312 725.671875 772.53125 725.570312 772.671875 C 725.761719 773.070312 725.78125 773.429688 725.589844 773.578125 C 725.328125 773.789062 724.769531 773.53125 724.339844 772.988281 C 723.914062 772.460938 723.777344 771.851562 724.039062 771.640625 C 724.230469 771.488281 724.578125 771.589844 724.921875 771.859375 C 725.113281 771.78125 725.410156 771.621094 725.734375 771.429688 C 725.609375 770.699219 726.007812 769.699219 726.792969 768.710938 C 726.261719 767.410156 724.675781 764.808594 723.421875 762.648438 C 722.488281 763.339844 721.5 763.910156 720.476562 764.351562 C 721 765.320312 721.507812 766.25 721.863281 766.71875 C 722.644531 766.621094 723.3125 766.738281 723.660156 767.039062 C 723.867188 766.929688 724.050781 766.828125 724.15625 766.75 C 724.121094 766.480469 724.183594 766.261719 724.328125 766.210938 C 724.523438 766.128906 724.804688 766.398438 724.949219 766.808594 C 725.097656 767.210938 725.054688 767.601562 724.859375 767.671875 C 724.714844 767.71875 724.527344 767.589844 724.378906 767.359375 C 724.269531 767.371094 724.097656 767.398438 723.90625 767.429688 C 724.074219 768.128906 723.191406 769.058594 721.851562 769.601562 C 721.957031 769.789062 722.054688 769.960938 722.128906 770.058594 C 722.398438 770.03125 722.617188 770.089844 722.671875 770.230469 C 722.742188 770.429688 722.472656 770.710938 722.070312 770.851562 C 721.667969 771 721.28125 770.960938 721.210938 770.761719 C 721.15625 770.621094 721.285156 770.429688 721.515625 770.28125 C 721.507812 770.160156 721.476562 769.96875 721.433594 769.761719 C 720.0625 770.199219 718.789062 770.050781 718.46875 769.410156 C 718.3125 769.5 718.179688 769.578125 718.09375 769.640625 C 718.128906 769.910156 718.066406 770.128906 717.921875 770.191406 C 717.726562 770.261719 717.445312 769.988281 717.300781 769.589844 C 717.152344 769.179688 717.195312 768.800781 717.394531 768.71875 C 717.535156 768.671875 717.722656 768.800781 717.871094 769.03125 C 717.996094 769.019531 718.1875 768.988281 718.40625 768.949219 C 718.480469 768.488281 718.917969 767.980469 719.578125 767.550781 C 719.542969 766.960938 719.347656 765.941406 719.125 764.859375 C 717.410156 765.421875 715.621094 765.648438 713.851562 765.570312 C 713.921875 767.398438 713.953125 769.71875 714.140625 770.761719 C 714.996094 771.058594 715.628906 771.511719 715.832031 772.011719 C 716.101562 772 716.34375 771.980469 716.492188 771.960938 C 716.59375 771.660156 716.769531 771.46875 716.945312 771.480469 C 717.183594 771.511719 717.335938 771.929688 717.28125 772.421875 C 717.226562 772.910156 716.988281 773.289062 716.746094 773.261719 C 716.570312 773.238281 716.445312 773.011719 716.410156 772.699219 C 716.289062 772.648438 716.101562 772.589844 715.886719 772.53125 C 715.707031 773.339844 714.320312 773.839844 712.664062 773.71875 C 712.675781 773.96875 712.691406 774.199219 712.71875 774.328125 C 713.011719 774.441406 713.207031 774.609375 713.1875 774.789062 C 713.160156 775.03125 712.742188 775.179688 712.253906 775.121094 C 711.761719 775.070312 711.386719 774.828125 711.414062 774.589844 C 711.433594 774.410156 711.660156 774.289062 711.972656 774.25 C 712.027344 774.121094 712.089844 773.910156 712.15625 773.671875 C 710.519531 773.421875 709.28125 772.621094 709.277344 771.808594 C 709.070312 771.820312 708.890625 771.828125 708.773438 771.851562 C 708.671875 772.148438 708.496094 772.339844 708.320312 772.320312 C 708.148438 772.300781 708.019531 772.070312 707.984375 771.761719 C 707.222656 771.808594 706.257812 771.628906 705.277344 771.210938 C 705.195312 771.5 705.125 771.769531 705.101562 771.929688 C 705.398438 772.171875 705.554688 772.441406 705.464844 772.628906 C 705.339844 772.898438 704.804688 772.910156 704.261719 772.660156 C 703.722656 772.398438 703.386719 771.988281 703.507812 771.71875 C 703.597656 771.53125 703.910156 771.46875 704.28125 771.550781 C 704.394531 771.421875 704.546875 771.199219 704.71875 770.949219 C 702.933594 770.039062 701.824219 768.640625 702.144531 767.699219 C 701.882812 767.621094 701.652344 767.558594 701.5 767.539062 C 701.265625 767.839844 700.992188 768 700.800781 767.910156 C 700.535156 767.78125 700.523438 767.238281 700.777344 766.699219 C 701.027344 766.160156 701.449219 765.828125 701.714844 765.949219 C 701.90625 766.039062 701.964844 766.351562 701.882812 766.71875 C 702.015625 766.839844 702.257812 767.011719 702.53125 767.191406 C 703.054688 766.808594 703.988281 766.730469 705.058594 766.96875 C 705.625 766.328125 706.480469 765.058594 707.347656 763.738281 C 705.914062 762.949219 704.59375 761.910156 703.445312 760.640625 C 701.808594 762.390625 699.890625 764.390625 699.132812 765.480469 C 699.679688 766.609375 699.847656 767.671875 699.570312 768.359375 C 699.828125 768.601562 700.066406 768.800781 700.226562 768.921875 C 700.617188 768.730469 700.980469 768.710938 701.132812 768.898438 C 701.34375 769.160156 701.078125 769.71875 700.546875 770.148438 C 700.011719 770.570312 699.40625 770.710938 699.195312 770.449219 C 699.046875 770.261719 699.144531 769.910156 699.414062 769.570312 C 699.351562 769.410156 699.234375 769.191406 699.09375 768.941406 C 698.128906 769.539062 696.277344 768.679688 694.777344 766.941406 C 694.539062 767.199219 694.335938 767.429688 694.226562 767.589844 C 694.414062 767.980469 694.433594 768.351562 694.242188 768.5 C 693.980469 768.710938 693.421875 768.441406 692.996094 767.910156 C 692.566406 767.371094 692.433594 766.769531 692.695312 766.558594 C 692.886719 766.410156 693.234375 766.511719 693.574219 766.78125 C 693.757812 766.710938 694.03125 766.558594 694.332031 766.390625 C 692.960938 764.53125 692.53125 762.53125 693.339844 761.730469 C 693.109375 761.519531 692.902344 761.339844 692.753906 761.230469 C 692.363281 761.421875 692 761.441406 691.847656 761.25 C 691.636719 760.988281 691.902344 760.429688 692.4375 760.011719 C 692.972656 759.578125 693.574219 759.441406 693.785156 759.710938 C 693.9375 759.898438 693.839844 760.238281 693.566406 760.589844 C 693.644531 760.78125 693.808594 761.070312 693.992188 761.398438 C 694.726562 761.269531 695.730469 761.671875 696.714844 762.460938 C 697.941406 761.960938 700.316406 760.53125 702.390625 759.308594 C 701.6875 758.320312 701.121094 757.269531 700.6875 756.191406 C 699.8125 756.660156 699.011719 757.109375 698.578125 757.429688 C 698.675781 758.210938 698.5625 758.871094 698.257812 759.230469 C 698.363281 759.421875 698.464844 759.589844 698.535156 759.691406 C 698.808594 759.660156 699.027344 759.71875 699.078125 759.859375 C 699.152344 760.058594 698.882812 760.339844 698.480469 760.480469 C 698.074219 760.628906 697.691406 760.589844 697.617188 760.390625 C 697.566406 760.25 697.695312 760.058594 697.925781 759.910156 C 697.917969 759.808594 697.894531 759.648438 697.859375 759.480469 C 697.164062 759.640625 696.238281 758.761719 695.695312 757.421875 C 695.507812 757.53125 695.335938 757.628906 695.238281 757.699219 C 695.273438 757.96875 695.210938 758.191406 695.066406 758.238281 C 694.871094 758.308594 694.589844 758.039062 694.445312 757.640625 C 694.296875 757.238281 694.339844 756.851562 694.535156 756.78125 C 694.679688 756.730469 694.867188 756.859375 695.015625 757.089844 C 695.140625 757.078125 695.328125 757.050781 695.542969 757 C 695.101562 755.628906 695.246094 754.351562 695.890625 754.039062 C 695.796875 753.871094 695.710938 753.71875 695.640625 753.628906 C 695.371094 753.660156 695.152344 753.601562 695.101562 753.460938 C 695.027344 753.261719 695.296875 752.980469 695.699219 752.828125 C 696.105469 752.691406 696.488281 752.730469 696.5625 752.929688 C 696.613281 753.070312 696.484375 753.261719 696.253906 753.410156 C 696.261719 753.539062 696.300781 753.738281 696.347656 753.96875 C 696.804688 754.050781 697.320312 754.488281 697.746094 755.148438 C 698.292969 755.121094 699.214844 754.941406 700.199219 754.738281 C 699.671875 752.878906 699.519531 750.949219 699.726562 749.058594 C 697.960938 749.121094 695.863281 749.160156 694.894531 749.339844 C 694.597656 750.191406 694.144531 750.808594 693.652344 751.019531 C 693.660156 751.28125 693.675781 751.5 693.703125 751.640625 C 693.996094 751.738281 694.191406 751.921875 694.171875 752.089844 C 694.144531 752.328125 693.726562 752.480469 693.238281 752.429688 C 692.746094 752.371094 692.371094 752.140625 692.398438 751.898438 C 692.417969 751.71875 692.644531 751.589844 692.957031 751.558594 C 693.003906 751.449219 693.058594 751.269531 693.113281 751.078125 C 692.3125 750.890625 691.808594 749.511719 691.929688 747.859375 C 691.679688 747.871094 691.457031 747.878906 691.320312 747.910156 C 691.214844 748.210938 691.042969 748.398438 690.867188 748.378906 C 690.628906 748.351562 690.476562 747.941406 690.53125 747.449219 C 690.585938 746.960938 690.824219 746.578125 691.0625 746.609375 C 691.238281 746.628906 691.367188 746.851562 691.402344 747.171875 C 691.53125 747.21875 691.746094 747.28125 691.988281 747.351562 C 692.234375 745.710938 693.03125 744.46875 693.855469 744.46875 C 693.84375 744.25 693.828125 744.050781 693.808594 743.921875 C 693.511719 743.820312 693.316406 743.648438 693.335938 743.46875 C 693.363281 743.230469 693.777344 743.078125 694.261719 743.128906 C 694.355469 742.699219 694.5 742.25 694.691406 741.789062 C 694.402344 741.699219 694.140625 741.628906 693.972656 741.609375 C 693.738281 741.910156 693.464844 742.058594 693.273438 741.96875 C 693.007812 741.851562 692.996094 741.308594 693.25 740.769531 C 693.503906 740.230469 693.921875 739.898438 694.1875 740.019531 C 694.378906 740.109375 694.4375 740.421875 694.355469 740.789062 C 694.480469 740.898438 694.703125 741.058594 694.953125 741.230469 C 695.867188 739.449219 697.257812 738.339844 698.199219 738.648438 C 698.265625 738.410156 698.320312 738.199219 698.34375 738.058594 C 698.042969 737.828125 697.886719 737.550781 697.976562 737.359375 C 698.101562 737.089844 698.640625 737.078125 699.179688 737.339844 C 699.71875 737.589844 700.058594 738.011719 699.933594 738.269531 C 699.84375 738.460938 699.53125 738.519531 699.160156 738.441406 C 699.046875 738.570312 698.890625 738.789062 698.71875 739.050781 C 699.097656 739.570312 699.171875 740.5 698.9375 741.570312 C 699.46875 742.039062 700.441406 742.710938 701.519531 743.429688 C 702.328125 741.980469 703.390625 740.640625 704.703125 739.488281 C 703.070312 737.960938 701.3125 736.300781 700.316406 735.601562 C 699.183594 736.148438 698.121094 736.320312 697.433594 736.039062 C 697.179688 736.308594 696.953125 736.570312 696.835938 736.738281 C 697.027344 737.128906 697.046875 737.488281 696.855469 737.640625 C 696.59375 737.851562 696.035156 737.589844 695.605469 737.050781 C 695.179688 736.519531 695.042969 735.921875 695.304688 735.710938 C 695.496094 735.550781 695.847656 735.648438 696.1875 735.921875 C 696.351562 735.859375 696.59375 735.730469 696.863281 735.570312 C 696.253906 734.609375 697.113281 732.75 698.859375 731.25 C 698.601562 731.011719 698.367188 730.808594 698.207031 730.699219 C 697.816406 730.890625 697.453125 730.910156 697.300781 730.710938 C 697.089844 730.449219 697.355469 729.890625 697.890625 729.46875 C 698.425781 729.039062 699.027344 728.898438 699.238281 729.171875 C 699.390625 729.359375 699.292969 729.710938 699.019531 730.050781 C 699.09375 730.230469 699.242188 730.5 699.414062 730.800781 C 701.261719 729.429688 703.257812 729 704.066406 729.800781 C 704.257812 729.589844 704.421875 729.398438 704.515625 729.261719 C 704.328125 728.871094 704.308594 728.511719 704.496094 728.359375 C 704.761719 728.148438 705.320312 728.410156 705.746094 728.949219 C 706.175781 729.480469 706.308594 730.078125 706.046875 730.289062 C 705.855469 730.449219 705.507812 730.351562 705.164062 730.078125 C 704.984375 730.148438 704.707031 730.300781 704.402344 730.46875 C 704.523438 731.210938 704.125 732.199219 703.34375 733.179688 C 703.507812 733.589844 703.777344 734.121094 704.105469 734.730469 C 704.125 734.761719 704.144531 734.789062 704.164062 734.820312 C 704.277344 734.808594 704.445312 734.78125 704.636719 734.738281 C 704.46875 734.050781 705.351562 733.121094 706.691406 732.570312 C 706.585938 732.378906 706.488281 732.21875 706.414062 732.121094 C 706.144531 732.148438 705.925781 732.089844 705.871094 731.949219 C 705.800781 731.75 706.070312 731.46875 706.472656 731.320312 C 706.878906 731.179688 707.261719 731.21875 707.335938 731.421875 C 707.386719 731.558594 707.257812 731.75 707.027344 731.890625 C 707.035156 732.019531 707.070312 732.210938 707.109375 732.421875 C 708.480469 731.980469 709.753906 732.128906 710.074219 732.761719 C 710.230469 732.679688 710.367188 732.601562 710.449219 732.53125 C 710.414062 732.261719 710.476562 732.039062 710.621094 731.988281 C 710.816406 731.921875 711.097656 732.191406 711.242188 732.589844 C 711.390625 733 711.347656 733.378906 711.152344 733.449219 C 711.007812 733.511719 710.820312 733.378906 710.671875 733.148438 C 710.550781 733.148438 710.355469 733.191406 710.140625 733.230469 C 710.0625 733.691406 709.625 734.199219 708.964844 734.628906 C 708.992188 735.109375 709.132812 735.878906 709.300781 736.730469 C 711.050781 736.070312 712.886719 735.761719 714.714844 735.789062 C 714.648438 734 714.609375 731.820312 714.433594 730.828125 C 713.574219 730.53125 712.945312 730.078125 712.742188 729.578125 C 712.472656 729.589844 712.226562 729.609375 712.082031 729.628906 C 711.980469 729.929688 711.804688 730.121094 711.628906 730.109375 C 711.390625 730.078125 711.238281 729.660156 711.292969 729.171875 C 711.347656 728.679688 711.585938 728.300781 711.828125 728.328125 C 712.003906 728.351562 712.128906 728.578125 712.164062 728.890625 C 712.28125 728.941406 712.472656 729 712.6875 729.058594 C 712.867188 728.25 714.25 727.75 715.90625 727.871094 C 715.894531 727.621094 715.882812 727.390625 715.855469 727.261719 C 715.558594 727.148438 715.367188 726.980469 715.386719 726.800781 C 715.410156 726.558594 715.832031 726.410156 716.320312 726.46875 C 716.8125 726.519531 717.1875 726.761719 717.160156 727 C 717.140625 727.179688 716.914062 727.300781 716.601562 727.339844 C 716.546875 727.46875 716.480469 727.679688 716.417969 727.921875 C 718.054688 728.171875 719.289062 728.960938 719.296875 729.789062 C 719.5 729.769531 719.679688 729.761719 719.800781 729.738281 C 719.902344 729.441406 720.074219 729.25 720.253906 729.269531 C 720.453125 729.289062 720.59375 729.589844 720.597656 729.980469 C 721.402344 729.851562 722.496094 730.019531 723.617188 730.5 C 723.703125 730.210938 723.773438 729.949219 723.796875 729.78125 C 723.496094 729.550781 723.34375 729.269531 723.433594 729.078125 C 723.554688 728.808594 724.09375 728.800781 724.632812 729.058594 C 725.175781 729.308594 725.511719 729.730469 725.390625 729.988281 C 725.296875 730.179688 724.988281 730.238281 724.617188 730.160156 C 724.503906 730.289062 724.347656 730.511719 724.179688 730.761719 C 725.960938 731.671875 727.066406 733.058594 726.753906 734 C 726.992188 734.070312 727.207031 734.128906 727.347656 734.148438 C 727.582031 733.851562 727.855469 733.691406 728.050781 733.78125 C 728.3125 733.910156 728.324219 734.441406 728.070312 734.980469 C 727.820312 735.519531 727.398438 735.859375 727.136719 735.738281 C 726.941406 735.648438 726.886719 735.339844 726.964844 734.96875 C 726.839844 734.851562 726.613281 734.699219 726.359375 734.53125 C 725.835938 734.898438 724.902344 734.980469 723.839844 734.738281 C 723.320312 735.328125 722.558594 736.449219 721.761719 737.648438 C 723.1875 738.441406 724.503906 739.46875 725.640625 740.75 C 727.296875 738.96875 729.269531 736.921875 730.042969 735.808594 C 729.492188 734.671875 729.324219 733.609375 729.605469 732.921875 C 729.332031 732.671875 729.078125 732.441406 728.90625 732.328125 C 728.515625 732.519531 728.152344 732.539062 728 732.351562 C 727.789062 732.078125 728.054688 731.519531 728.589844 731.101562 C 729.125 730.671875 729.730469 730.53125 729.9375 730.800781 C 730.089844 730.988281 729.992188 731.339844 729.71875 731.679688 C 729.785156 731.839844 729.917969 732.089844 730.070312 732.359375 C 731.035156 731.738281 732.890625 732.601562 734.398438 734.351562 C 734.632812 734.089844 734.839844 733.859375 734.949219 733.699219 C 734.757812 733.308594 734.738281 732.941406 734.929688 732.789062 C 735.191406 732.578125 735.75 732.851562 736.179688 733.378906 C 736.605469 733.921875 736.742188 734.519531 736.480469 734.730469 C 736.289062 734.878906 735.9375 734.78125 735.597656 734.511719 C 735.417969 734.578125 735.144531 734.730469 734.84375 734.910156 C 736.210938 736.75 736.640625 738.75 735.84375 739.558594 C 736.054688 739.75 736.242188 739.910156 736.382812 740.011719 C 736.773438 739.820312 737.136719 739.800781 737.289062 739.988281 C 737.496094 740.25 737.234375 740.808594 736.699219 741.238281 C 736.164062 741.660156 735.5625 741.800781 735.351562 741.539062 C 735.199219 741.351562 735.296875 741 735.570312 740.660156 C 735.496094 740.46875 735.34375 740.199219 735.171875 739.890625 C 734.4375 740.011719 733.441406 739.621094 732.460938 738.828125 C 731.210938 739.339844 728.773438 740.808594 726.675781 742.039062 C 727.410156 743.070312 727.996094 744.171875 728.4375 745.300781 Z M 712.785156 765.480469 C 711.535156 765.328125 710.304688 765.03125 709.121094 764.570312 C 708.667969 766.078125 708.238281 767.550781 708.113281 768.398438 C 708.976562 769.058594 709.515625 769.828125 709.566406 770.46875 C 709.859375 770.558594 710.125 770.628906 710.292969 770.648438 C 710.527344 770.351562 710.800781 770.199219 710.992188 770.289062 C 711.066406 770.320312 711.121094 770.390625 711.15625 770.480469 C 711.226562 770.46875 711.296875 770.460938 711.367188 770.449219 C 711.777344 769.488281 712.316406 767.25 712.785156 765.480469 Z M 709.535156 771.191406 C 709.496094 771.160156 709.460938 771.128906 709.417969 771.109375 C 709.386719 771.160156 709.351562 771.210938 709.308594 771.25 C 709.355469 771.269531 709.402344 771.28125 709.449219 771.289062 C 709.476562 771.261719 709.503906 771.21875 709.535156 771.191406 Z M 699.898438 747.910156 C 700.0625 747.058594 700.292969 746.21875 700.601562 745.410156 C 699.359375 745.050781 698.214844 744.730469 697.511719 744.621094 C 696.839844 745.488281 696.074219 746.03125 695.429688 746.078125 C 695.371094 746.269531 695.320312 746.441406 695.285156 746.601562 C 696.238281 746.980469 698.234375 747.46875 699.898438 747.910156 Z M 729.210938 753.289062 C 729.035156 754.261719 728.769531 755.21875 728.40625 756.140625 C 729.972656 756.609375 731.503906 757.058594 732.371094 757.191406 C 732.941406 756.449219 733.582031 755.949219 734.15625 755.789062 C 734.019531 755.46875 733.921875 755.070312 733.871094 754.628906 C 732.960938 754.238281 730.917969 753.738281 729.210938 753.289062 Z M 715.859375 735.839844 C 717.230469 735.96875 718.589844 736.28125 719.886719 736.769531 C 720.296875 735.390625 720.667969 734.089844 720.78125 733.320312 C 719.917969 732.640625 719.375 731.878906 719.332031 731.230469 C 719.019531 731.140625 718.734375 731.058594 718.554688 731.039062 C 718.324219 731.339844 718.046875 731.488281 717.855469 731.398438 C 717.746094 731.351562 717.679688 731.230469 717.65625 731.070312 C 717.511719 731.101562 717.363281 731.121094 717.203125 731.140625 C 716.816406 732.058594 716.3125 734.121094 715.859375 735.839844 Z M 719.089844 730.339844 C 719.199219 730.421875 719.328125 730.511719 719.472656 730.609375 C 719.511719 730.550781 719.554688 730.488281 719.605469 730.441406 C 719.476562 730.398438 719.308594 730.351562 719.125 730.300781 C 719.113281 730.308594 719.101562 730.328125 719.089844 730.339844 Z M 706.183594 738.351562 C 706.714844 737.980469 707.265625 737.660156 707.828125 737.378906 C 707.390625 736.578125 706.980469 735.859375 706.683594 735.449219 C 705.898438 735.550781 705.234375 735.441406 704.882812 735.128906 C 704.71875 735.21875 704.566406 735.308594 704.460938 735.378906 C 704.980469 736.308594 705.597656 737.351562 706.183594 738.351562 "/>
<path fill-rule="evenodd" fill="rgb(93.75%, 29.417419%, 29.026794%)" fill-opacity="1" d="M 748.066406 732.628906 C 753.054688 741.769531 753.867188 752.070312 751.144531 761.320312 C 748.425781 770.578125 742.175781 778.800781 733.035156 783.789062 C 723.898438 788.769531 713.605469 789.589844 704.347656 786.871094 C 695.089844 784.148438 686.871094 777.890625 681.882812 768.761719 C 676.898438 759.621094 676.085938 749.320312 678.804688 740.070312 C 681.527344 730.808594 687.777344 722.589844 696.914062 717.601562 C 706.054688 712.621094 716.347656 711.808594 725.605469 714.53125 C 734.859375 717.25 743.078125 723.5 748.066406 732.628906 Z M 696.769531 727.371094 L 724.746094 778.628906 C 718.773438 780.730469 712.445312 780.789062 706.632812 779.089844 C 699.367188 776.949219 692.917969 772.039062 689.003906 764.871094 C 685.089844 757.699219 684.453125 749.621094 686.585938 742.351562 C 688.292969 736.539062 691.773438 731.25 696.769531 727.371094 Z M 733.183594 774.019531 L 705.207031 722.761719 C 711.175781 720.660156 717.507812 720.601562 723.316406 722.308594 C 730.585938 724.441406 737.035156 729.351562 740.949219 736.519531 C 744.863281 743.691406 745.5 751.769531 743.367188 759.039062 C 741.660156 764.851562 738.179688 770.140625 733.183594 774.019531 "/>
<path fill-rule="evenodd" fill="rgb(100%, 100%, 100%)" fill-opacity="1" d="M 668.265625 687.96875 L 681.960938 692.570312 C 694.007812 681.179688 710.894531 675.488281 727.800781 677.910156 L 731.746094 666.171875 C 707.984375 661.878906 683.957031 670.570312 668.265625 687.96875 "/>
<path fill-rule="evenodd" fill="rgb(100%, 100%, 100%)" fill-opacity="1" d="M 680.84375 693.648438 L 667.273438 689.089844 C 666.03125 690.53125 664.847656 692.019531 663.722656 693.570312 L 676.929688 698.011719 C 678.160156 696.480469 679.46875 695.03125 680.84375 693.648438 "/>
<path fill-rule="evenodd" fill="rgb(100%, 100%, 100%)" fill-opacity="1" d="M 675.976562 699.21875 L 662.84375 694.808594 C 662.511719 695.289062 662.191406 695.761719 661.871094 696.25 L 674.9375 700.640625 C 675.277344 700.160156 675.625 699.691406 675.976562 699.21875 "/>
<path fill-rule="evenodd" fill="rgb(5.488586%, 6.665039%, 22.75238%)" fill-opacity="1" d="M 1298.058594 974.429688 C 1628.359375 1112.558594 1339.71875 1288.128906 1106.449219 1451.980469 C 1072.289062 1478.917969 996.527344 1566.445312 956.632812 1522.632812 C 902.453125 1463.128906 1014.03125 1357.738281 1066.578125 1287.019531 L 1101.21875 1241.160156 L 1298.058594 974.429688 "/>
<path fill-rule="evenodd" fill="rgb(5.488586%, 6.665039%, 22.75238%)" fill-opacity="1" d="M 1240.519531 1007.71875 C 1570.128906 858.28125 1501.410156 1192.808594 1462.140625 1478.28125 C 1458.558594 1522.113281 1467.839844 1591.300781 1407.949219 1590.671875 C 1326.601562 1589.820312 1328.761719 1481.824219 1312.578125 1394.238281 L 1302.480469 1337.03125 L 1240.519531 1007.71875 "/>
<path fill-rule="evenodd" fill="rgb(14.501953%, 32.151794%, 48.631287%)" fill-opacity="1" d="M 1054.191406 1880.28125 C 1046.46875 1884.882812 1013.488281 1914.429688 1013.488281 1914.429688 C 984.484375 1933.960938 957.171875 1953.53125 922.738281 1961.617188 C 915.355469 1963.351562 908.0625 1965.097656 901.855469 1967.03125 C 891.199219 1970.351562 879.308594 1984.613281 892.246094 1995.300781 C 919.21875 2017.582031 992.023438 1998.636719 1025.429688 1995.207031 C 1035.738281 1994.148438 1046.101562 1994.023438 1056.429688 1993.433594 C 1072.308594 1992.523438 1093.398438 1992.824219 1108.128906 1987.257812 C 1130.519531 1978.789062 1124.011719 1965.34375 1111.398438 1924.476562 C 1109.46875 1918.238281 1108.648438 1912.089844 1111.171875 1904.585938 L 1094.449219 1896.84375 L 1081.878906 1887.863281 L 1054.191406 1880.28125 "/>
<path fill-rule="evenodd" fill="rgb(5.488586%, 6.665039%, 22.75238%)" fill-opacity="1" d="M 943.632812 1498.261719 C 959.738281 1587.863281 981.6875 1672.878906 1000.179688 1759.589844 C 1006.808594 1790.703125 1013 1822.03125 1018.308594 1853.871094 L 1026.828125 1901.152344 C 1072.210938 1934.117188 1105.199219 1938.246094 1119.789062 1905.316406 C 1112.488281 1819.625 1084.660156 1552.152344 1083.398438 1466.160156 L 1021.109375 1472.839844 C 1021.109375 1472.839844 1008.539062 1507.183594 994.019531 1503.078125 C 979.496094 1498.980469 974.449219 1493.242188 970.953125 1490.816406 C 967.457031 1488.390625 943.632812 1498.261719 943.632812 1498.261719 "/>
<path fill-rule="evenodd" fill="rgb(14.501953%, 32.151794%, 48.631287%)" fill-opacity="1" d="M 1749.511719 1546.195312 C 1754.558594 1554.453125 1786.800781 1589.570312 1786.800781 1589.570312 C 1808.210938 1620.550781 1829.640625 1649.707031 1838.800781 1686.675781 C 1840.761719 1694.605469 1842.738281 1702.433594 1844.898438 1709.09375 C 1848.621094 1720.523438 1864.128906 1733.136719 1875.46875 1719.066406 C 1899.109375 1689.734375 1877.761719 1611.589844 1873.628906 1575.660156 C 1872.351562 1564.574219 1872.078125 1553.421875 1871.308594 1542.308594 C 1870.128906 1525.214844 1870.171875 1502.507812 1863.988281 1486.722656 C 1854.578125 1462.71875 1840.179688 1469.910156 1796.339844 1484.019531 C 1789.648438 1486.175781 1783.039062 1487.144531 1774.929688 1484.523438 L 1766.808594 1502.625 L 1757.308594 1516.285156 L 1749.511719 1546.195312 "/>
<path fill-rule="evenodd" fill="rgb(5.488586%, 6.665039%, 22.75238%)" fill-opacity="1" d="M 1377.699219 1584.023438 C 1414.089844 1601.582031 1542.269531 1594.074219 1631.191406 1578.972656 C 1660.398438 1575.035156 1689.78125 1571.53125 1719.570312 1568.871094 L 1763.851562 1564.335938 C 1797.511719 1524.742188 1803.648438 1494.554688 1774.261719 1478.753906 C 1694.578125 1479.449219 1433.210938 1463.691406 1353.679688 1458.792969 L 1363.351562 1523.410156 C 1363.351562 1523.410156 1394.191406 1537.445312 1389.378906 1550.570312 C 1384.558594 1563.695312 1378.910156 1567.953125 1376.421875 1571.011719 C 1373.929688 1574.070312 1377.699219 1584.023438 1377.699219 1584.023438 "/>
<path fill-rule="evenodd" fill="rgb(98.826599%, 35.693359%, 35.693359%)" fill-opacity="1" d="M 1165.480469 634.269531 C 1265.390625 604.628906 1358.648438 538.621094 1374 637.269531 C 1396.898438 784.511719 1359.070312 811.898438 1469.039062 1008.28125 C 1418.371094 1109.949219 1289.589844 1190.570312 1162.191406 1146.828125 C 1090.320312 951.53125 865.976562 662.988281 1165.480469 634.269531 "/>
<path fill-rule="evenodd" fill="rgb(98.826599%, 35.693359%, 35.693359%)" fill-opacity="1" d="M 1541.511719 836.761719 C 1586.359375 606.988281 1666.71875 977.511719 1691.949219 1075.050781 L 1629 1095.320312 C 1562.78125 949.828125 1544.859375 935.570312 1492.441406 833.039062 L 1541.511719 836.761719 "/>
<path fill-rule="evenodd" fill="rgb(98.826599%, 35.693359%, 35.693359%)" fill-opacity="1" d="M 1591.21875 770.589844 L 1619.050781 822.789062 C 1613.160156 890.25 1584.390625 893.109375 1546.96875 873.300781 C 1512.800781 855.210938 1479.28125 835.371094 1445.378906 815.128906 C 1397.101562 786.308594 1348.058594 756.699219 1295.351562 730.238281 C 1195.921875 670.261719 1245.25 575.21875 1339.179688 586.480469 C 1403.738281 594.21875 1506.410156 714.039062 1591.21875 770.589844 "/>
<path fill-rule="evenodd" fill="rgb(94.921875%, 74.414062%, 59.959412%)" fill-opacity="1" d="M 1188.328125 550.109375 L 1206.78125 620.261719 C 1175.738281 655.878906 1142.941406 663.441406 1096.308594 664.03125 L 1091.050781 619.929688 L 1088.171875 583.359375 L 1188.328125 550.109375 "/>
<path fill-rule="evenodd" fill="rgb(24.705505%, 10.984802%, 18.821716%)" fill-opacity="1" d="M 1058.839844 479.628906 C 1056.378906 459.921875 1042.148438 435.960938 1066.039062 445.378906 L 1073.628906 448.988281 L 1068.519531 477.480469 L 1058.839844 479.628906 "/>
<path fill-rule="evenodd" fill="rgb(98.826599%, 89.0625%, 76.951599%)" fill-opacity="1" d="M 1052.351562 531.839844 C 1054.121094 512.078125 1055.289062 494.53125 1058.839844 479.628906 C 1065.371094 452.25 1079.949219 433.789062 1121.148438 426.898438 C 1162.511719 420 1209.878906 427.019531 1215.050781 478.699219 C 1220.828125 536.53125 1201.289062 576.699219 1174.308594 601.628906 C 1165.46875 609.789062 1155.839844 616.320312 1146.03125 621.300781 C 1041.050781 674.601562 1049.96875 595.128906 1052.351562 531.839844 "/>
<path fill-rule="evenodd" fill="rgb(24.705505%, 10.984802%, 18.821716%)" fill-opacity="1" d="M 1201.339844 599.570312 L 1186.050781 566.988281 L 1190.621094 533.230469 C 1181.761719 481.308594 1169.46875 517.308594 1169.121094 478.210938 L 1098.550781 472.070312 L 1065.25 461.371094 C 1044.421875 357.019531 1157.910156 391.691406 1206.371094 446.441406 C 1244.960938 488.828125 1217.199219 558.800781 1201.339844 599.570312 "/>
<path fill-rule="evenodd" fill="rgb(98.826599%, 89.0625%, 76.951599%)" fill-opacity="1" d="M 1207.339844 541.070312 C 1208.671875 554.441406 1204.160156 563.71875 1197.921875 569.488281 C 1195.878906 571.371094 1193.648438 572.878906 1191.378906 574.03125 C 1127.53125 606.460938 1201.101562 478.691406 1207.339844 541.070312 "/>
<path fill-rule="evenodd" fill="rgb(98.826599%, 89.0625%, 76.951599%)" fill-opacity="1" d="M 764.335938 656.730469 C 761.890625 664.539062 765.066406 700.230469 746.460938 674.710938 C 736.605469 684.921875 724.441406 703.210938 721.847656 683.179688 C 721.5625 680.980469 724.589844 674.058594 721.84375 675.328125 C 702.785156 684.089844 704.6875 671.859375 710.171875 659.320312 L 716.746094 648.039062 L 725.039062 637.660156 L 736.59375 628.71875 L 742.113281 627.789062 L 754.4375 623.449219 C 754.4375 623.449219 760.640625 627.710938 762.570312 626.808594 C 764.503906 625.921875 769.441406 624.898438 769.441406 624.898438 C 774.363281 626.589844 777.464844 632.191406 779.625 637.148438 C 780.011719 638.03125 784.347656 647.519531 784.347656 647.519531 C 784.347656 647.519531 784.675781 658.769531 784.980469 659.191406 C 785.289062 659.621094 783.886719 666.191406 783.886719 666.191406 L 780.257812 669.351562 C 780.257812 669.351562 774.152344 665.410156 773.625 664.511719 C 773.097656 663.609375 765.554688 658.929688 764.335938 656.730469 "/>
<path fill-rule="evenodd" fill="rgb(98.826599%, 89.0625%, 76.951599%)" fill-opacity="1" d="M 829.09375 669.859375 C 828.558594 671.089844 824.273438 680.410156 822.921875 681.289062 C 821.570312 682.160156 809.890625 687.789062 809.890625 687.789062 C 809.890625 687.789062 801.78125 687.429688 801.886719 683.828125 C 801.988281 680.230469 801.808594 675.039062 802.898438 673.089844 C 803.992188 671.128906 809.421875 668.140625 810.949219 666.859375 C 812.476562 665.570312 814.628906 662.859375 815.570312 661.808594 C 816.511719 660.761719 820.09375 658.671875 821.382812 658.5 C 822.671875 658.328125 824.738281 658.96875 824.738281 658.96875 L 829.09375 669.859375 "/>
<path fill-rule="evenodd" fill="rgb(94.921875%, 68.164062%, 18.431091%)" fill-opacity="1" d="M 730.339844 644.558594 L 736.128906 646.5 L 754.785156 612.890625 L 742.382812 608.730469 L 730.339844 644.558594 "/>
<path fill-rule="evenodd" fill="rgb(25.87738%, 80.076599%, 70.896912%)" fill-opacity="1" d="M 1074.578125 542.058594 L 1051.480469 553.320312 C 1049.890625 597.289062 1051.429688 641.101562 1093.289062 638.730469 C 1120.980469 637.679688 1137.929688 627.128906 1160.640625 612.578125 L 1159.269531 603.480469 L 1192.238281 580.191406 L 1189.730469 574.851562 L 1157.300781 592.230469 L 1152.019531 562.171875 L 1151.480469 559.128906 L 1187.191406 528.269531 C 1187.921875 527.660156 1188.648438 527.101562 1189.371094 526.601562 C 1188.789062 523.769531 1188.191406 521.269531 1187.589844 519.050781 L 1143.570312 550 L 1074.578125 542.058594 "/>
<path fill-rule="evenodd" fill="rgb(51.367188%, 82.03125%, 85.9375%)" fill-opacity="1" d="M 652.226562 456.019531 C 664.4375 456.371094 674.230469 466.378906 674.230469 478.671875 C 674.230469 481.5 673.710938 484.210938 672.761719 486.710938 C 683.246094 495.53125 689.914062 508.75 689.914062 523.519531 C 689.914062 532.800781 687.28125 541.460938 682.730469 548.808594 L 720.894531 580.089844 L 657.277344 569.070312 C 652.429688 570.71875 647.230469 571.609375 641.828125 571.609375 C 635.265625 571.609375 629.011719 570.289062 623.316406 567.910156 C 618.378906 578.820312 607.402344 586.410156 594.65625 586.410156 C 577.292969 586.410156 563.214844 572.328125 563.214844 554.960938 C 563.214844 547.101562 566.097656 539.921875 570.867188 534.410156 C 569.347656 534.550781 567.808594 534.628906 566.253906 534.628906 C 558.507812 534.628906 551.199219 532.75 544.761719 529.429688 C 541.941406 530.75 538.792969 531.488281 535.476562 531.488281 C 523.382812 531.488281 513.574219 521.679688 513.574219 509.589844 C 513.574219 503.640625 515.949219 498.25 519.800781 494.300781 C 519.496094 492.148438 519.339844 489.949219 519.339844 487.71875 C 519.339844 461.808594 540.34375 440.808594 566.253906 440.808594 C 567.960938 440.808594 569.648438 440.898438 571.308594 441.078125 C 576.976562 424.820312 592.4375 413.160156 610.621094 413.160156 C 633.609375 413.160156 652.246094 431.800781 652.246094 454.789062 C 652.246094 455.199219 652.238281 455.609375 652.226562 456.019531 Z M 561.597656 431.890625 C 556.644531 431.890625 552.625 427.871094 552.625 422.910156 C 552.625 417.960938 556.644531 413.941406 561.597656 413.941406 C 566.554688 413.941406 570.570312 417.960938 570.570312 422.910156 C 570.570312 427.871094 566.554688 431.890625 561.597656 431.890625 Z M 535.847656 545.339844 C 544.679688 545.339844 551.839844 552.5 551.839844 561.339844 C 551.839844 570.171875 544.679688 577.328125 535.847656 577.328125 C 527.011719 577.328125 519.851562 570.171875 519.851562 561.339844 C 519.851562 552.5 527.011719 545.339844 535.847656 545.339844 "/>
<path fill-rule="evenodd" fill="rgb(100%, 100%, 100%)" fill-opacity="1" d="M 662.109375 494.191406 C 666.964844 494.191406 670.898438 498.128906 670.898438 502.980469 C 670.898438 507.839844 666.964844 511.769531 662.109375 511.769531 C 657.253906 511.769531 653.316406 507.839844 653.316406 502.980469 C 653.316406 498.128906 657.253906 494.191406 662.109375 494.191406 "/>
<path fill-rule="evenodd" fill="rgb(100%, 100%, 100%)" fill-opacity="1" d="M 591.359375 432 C 596.160156 432 600.050781 435.890625 600.050781 440.691406 C 600.050781 445.488281 596.160156 449.378906 591.359375 449.378906 C 586.558594 449.378906 582.667969 445.488281 582.667969 440.691406 C 582.667969 435.890625 586.558594 432 591.359375 432 "/>
<path fill-rule="evenodd" fill="rgb(100%, 100%, 100%)" fill-opacity="1" d="M 605.074219 423.871094 C 607.210938 423.871094 608.941406 425.601562 608.941406 427.738281 C 608.941406 429.871094 607.210938 431.601562 605.074219 431.601562 C 602.9375 431.601562 601.207031 429.871094 601.207031 427.738281 C 601.207031 425.601562 602.9375 423.871094 605.074219 423.871094 "/>
<path fill-rule="evenodd" fill="rgb(100%, 100%, 100%)" fill-opacity="1" d="M 541.214844 489.21875 C 546.144531 489.21875 550.136719 493.210938 550.136719 498.140625 C 550.136719 503.070312 546.144531 507.058594 541.214844 507.058594 C 536.285156 507.058594 532.289062 503.070312 532.289062 498.140625 C 532.289062 493.210938 536.285156 489.21875 541.214844 489.21875 "/>
<path fill-rule="evenodd" fill="rgb(100%, 100%, 100%)" fill-opacity="1" d="M 553.234375 504.410156 C 554.984375 504.410156 556.40625 505.828125 556.40625 507.578125 C 556.40625 509.328125 554.984375 510.75 553.234375 510.75 C 551.484375 510.75 550.066406 509.328125 550.066406 507.578125 C 550.066406 505.828125 551.484375 504.410156 553.234375 504.410156 "/>
<path fill-rule="evenodd" fill="rgb(100%, 100%, 100%)" fill-opacity="1" d="M 538.089844 550.011719 C 539.839844 550.011719 541.257812 551.429688 541.257812 553.179688 C 541.257812 554.929688 539.839844 556.351562 538.089844 556.351562 C 536.339844 556.351562 534.921875 554.929688 534.921875 553.179688 C 534.921875 551.429688 536.339844 550.011719 538.089844 550.011719 "/>
<path fill-rule="evenodd" fill="rgb(100%, 100%, 100%)" fill-opacity="1" d="M 563.710938 416.78125 C 565.460938 416.78125 566.878906 418.199219 566.878906 419.949219 C 566.878906 421.699219 565.460938 423.121094 563.710938 423.121094 C 561.960938 423.121094 560.539062 421.699219 560.539062 419.949219 C 560.539062 418.199219 561.960938 416.78125 563.710938 416.78125 "/>
<path fill-rule="evenodd" fill="rgb(100%, 100%, 100%)" fill-opacity="1" d="M 602.53125 534.511719 C 608.386719 534.511719 613.128906 539.261719 613.128906 545.109375 C 613.128906 550.960938 608.386719 555.699219 602.53125 555.699219 C 596.679688 555.699219 591.9375 550.960938 591.9375 545.109375 C 591.9375 539.261719 596.679688 534.511719 602.53125 534.511719 "/>
<path fill-rule="evenodd" fill="rgb(100%, 100%, 100%)" fill-opacity="1" d="M 616.054688 555.539062 C 617.09375 555.539062 617.933594 556.378906 617.933594 557.421875 C 617.933594 558.449219 617.09375 559.289062 616.054688 559.289062 C 615.019531 559.289062 614.179688 558.449219 614.179688 557.421875 C 614.179688 556.378906 615.019531 555.539062 616.054688 555.539062 "/>
</svg>
