<?xml version="1.0" encoding="UTF-8"?>
<!DOCTYPE svg PUBLIC "-//W3C//DTD SVG 1.1//EN" "http://www.w3.org/Graphics/SVG/1.1/DTD/svg11.dtd">
<!-- Creator: CorelDRAW -->
<svg xmlns="http://www.w3.org/2000/svg" xml:space="preserve" width="1900px" height="1920px" version="1.1" style="shape-rendering:geometricPrecision; text-rendering:geometricPrecision; image-rendering:optimizeQuality; fill-rule:evenodd; clip-rule:evenodd"
viewBox="0 0 775.13 783.67"
 xmlns:xlink="http://www.w3.org/1999/xlink"
 xmlns:xodm="http://www.corel.com/coreldraw/odm/2003">
 <defs>
  <style type="text/css">
   <![CDATA[
    .fil5 {fill:#0180B7}
    .fil7 {fill:#02638C}
    .fil3 {fill:#2894C2}
    .fil6 {fill:#489CCB}
    .fil8 {fill:#B41D1B}
    .fil10 {fill:#B5CDD6}
    .fil2 {fill:#CEE0EC}
    .fil9 {fill:#D53843}
    .fil0 {fill:#E52C2A}
    .fil4 {fill:#ECECEC}
    .fil1 {fill:#F6BB97}
   ]]>
  </style>
 </defs>
 <g id="Layer_x0020_1">
  <metadata id="CorelCorpID_0Corel-Layer"/>
  <g id="_2217124170208">
   <path class="fil0" d="M576.99 289.41c-0.01,0 -3.07,5.37 -7.97,0.17 -8.94,-9.48 15.37,-15.85 7.97,-0.17zm19.98 -17.53c-2.64,-18.98 25.66,-21.23 27.2,-3.22 1.54,17.87 -24.8,20.54 -27.2,3.22zm-76.45 -39.09c-4.18,-20.02 14.06,-19.3 17.94,-11.1 5.47,11.55 -6.57,18.89 -17.94,11.1zm52.83 -6l-0.7 -9.25 10.12 -0.39 0.8 8.96 -10.22 0.68zm46.88 -15.3c3.93,-3.07 5.51,-6.4 11.76,-5.44 6.53,1 9.06,6.58 7.56,12.86 -2.35,9.81 -20.22,11.87 -19.32,-7.42zm-38.15 -39.92c-3.74,-18.68 24.7,-22.36 26.8,-4.97 2.32,19.29 -23.67,20.58 -26.8,4.97zm52.77 -29.92c8.94,-2.27 10.63,-0.76 15.9,2.71 4.83,22.72 -26.51,21.06 -15.9,-2.71zm-98.24 -0.82c9.3,-4.36 11.94,-0.61 10.28,8.14l-9.51 0.88 -0.77 -9.02zm-69.03 -6.67c2.71,-4.05 2.06,-1.77 3.4,-6.8 -5.18,-7.73 -7.18,-3.75 -11.9,-10.2 1.68,-6.31 1.72,-2.2 3.4,-8.5 11.11,0.92 11.19,4.58 16.51,10.71 8.15,9.4 11.1,3.77 17.49,-0.51 0,-6.91 0.57,-5.48 -1.7,-10.2 11,0.91 19.29,9.02 23.42,17.49 6.46,13.24 -11.26,26.63 -11.51,26.71 -23.68,-0.52 -10.64,-25.33 -39.11,-18.7zm-44.21 -31.93c3.03,8.21 -4.98,14.01 -10.17,8.27 -4.58,-5.06 0.86,-13.76 10.17,-8.27zm71.41 6.43zm-18.7 -22.11l18.7 22.11zm-18.7 -22.11c5.19,3.8 2.38,2.94 5.67,9.64 2.66,5.42 3.41,4.85 6.23,9.06 -25.46,0 -18.64,-14.19 -11.9,-18.7zm-51.55 -31.08c5.52,-3.77 15.92,2.63 9.41,9.36 -7.04,7.29 -11.85,-1.43 -9.41,-9.36zm-31.77 73.59l-2.39 5.49 5.8 -2.08c8.43,-1.66 -1.57,-0.74 7.07,-4.9 4.77,-2.3 5.67,-0.76 9.93,1.49 -0.17,7.45 -10.2,26.86 6.8,18.7 5,-10.41 -11.23,-18.7 11.9,-18.7 5.16,10.74 2.13,11.87 3.4,27.2 11.64,2.71 7.41,4.73 17.01,-1.7 0,-18.97 -9.78,-9.68 -10.2,-28.9 6.04,-1.96 5.24,-3.55 11.9,-5.1 3.35,5 3.49,4.98 5.1,11.9 3.87,0.9 3.91,1.32 8.5,1.7 -4.43,8.36 -6.43,18.74 4.48,22.72 5.99,2.19 9.49,0.14 15.46,1.55 3.77,0.89 7.3,4.08 10.66,6.34 0,11.14 -4.2,13.01 -5.1,23.8 -11.94,0 -13.07,2.88 -24.3,-1.18 -7.9,-2.86 -12.63,-7.91 -19.84,-10.84 -16.61,-6.75 -34.55,9.67 -25.65,27.4 9.8,19.53 30.85,4.42 41.63,2.21 6.18,-1.27 19.6,2.45 22.41,5.17 4.29,4.14 4.05,18.43 4.05,26.55 -7.52,1.75 -5.07,3.56 -15.32,3.49 -9.51,-0.07 -21.94,-2.55 -23.48,10.47 -0.79,6.64 3.71,9.09 6.5,13.24 24.65,0 12,-13.19 37.4,-15.3 3.11,5.87 5.96,13.82 10.21,18.7 -10.32,15.4 -11.99,17.48 -32.52,21.9 -27.6,5.94 -25.21,43.41 3.41,39.28 4.05,-0.59 6.54,-1.78 9.47,-4.3 14.38,-12.39 3.55,-29.16 34.94,-36.47 4.24,2.84 5.06,4.65 8.98,8.02 3.67,3.15 7.37,5.13 11.42,7.28 0,13.49 -3.9,14.83 -11.43,20.87 -22.84,18.34 13.71,36.56 17.92,14.52 3.15,-16.55 -3.87,-10.48 7.11,-26.89 4.17,0.35 9.55,1.91 12.28,3.03 13.71,5.59 4.33,28.16 0.18,34.93 -3.91,6.4 -9.84,12.94 -6.97,24.48 4.66,18.71 28.88,17.57 36.65,1.71 4.86,-9.91 -0.96,-15.77 -3.99,-24.08 -3.24,-8.86 -2.8,-19.27 0.8,-26.63 2.61,-5.36 2.32,-4.88 9.23,-6.07 7.49,-1.29 8.71,0.62 14.74,-2.27 13.92,26.31 -5.35,17.59 10.2,40.81 11.35,0 23.52,-3.66 17.47,-17.3 -5.98,-13.47 -12.37,-7.45 -12.37,-26.91 3.77,-1.99 6.59,-2.67 10.67,-4.63 4.03,-1.94 5.82,-3.5 9.73,-5.57 25.29,13.38 15.26,39.12 32.74,48.89 23.2,12.95 41.92,-22.82 15.39,-35.81 -15.44,-7.56 -23.32,-9.49 -27.73,-28.38 2.77,-4.13 4.62,-4.98 7.82,-9.19 2.97,-3.91 5.01,-7.52 7.49,-11.22 13.37,1.11 13.47,6.47 20.1,13.91 17.15,19.24 36.42,-16 12.08,-18.88 -22.1,-2.62 -9.78,1.82 -25.38,-8.63 4.79,-9.06 1.74,-15.9 10.17,-18.81 7.18,-2.49 18.1,-0.51 24.46,2.88 7.74,4.13 8.76,7.87 19.05,10.02 10.13,2.12 16.32,-2.17 20.73,-8.1 10.18,-13.69 -2.62,-33.74 -20.99,-29.63 -21.37,4.78 -20.83,15.56 -44.92,-0.57 0,-10.43 -1.53,-16.09 -1.7,-23.8 6.27,-1.68 3.72,-3.05 10.89,-4.52 6.56,-1.35 8.19,1.08 14.7,1.22 26.06,0.55 11.65,-37.61 -7.34,-20.99 -7.76,6.79 -8.46,10.69 -23.35,10.69l-8.5 -18.71c10.7,-15.99 12.4,-15.29 33.35,-21.06 15.2,-4.18 25.69,-19.92 12.26,-33.05 -24.36,-23.81 -32.45,15.15 -43.41,25.71 -8.86,8.55 -9.77,5.17 -19.21,9.7 -3.06,-4.58 -11.18,-12.05 -17,-13.6 0.46,-20.54 33.87,-28.31 15.73,-43.02 -8.2,-6.66 -18.03,0.27 -20.16,7.98 -3.96,14.34 2.69,30.01 -18.97,22.73 -3.58,-1.21 -7.02,-2.16 -10.6,-3 -0.26,-11.38 -3.87,-12.03 0.7,-24.8 2.96,-8.29 8,-11.35 10.48,-18.5 5.83,-16.75 -7,-34.29 -25.37,-27.04 -26.52,10.48 4.72,40.91 -7.22,62.54 -4.02,7.29 -16.1,6.1 -24.5,6.1 -2.33,-10.01 -4.73,-6.56 -2.63,-21.44 1.55,-10.96 -1.46,-11.08 -5.87,-17.66 -11.76,0 -23.86,3.06 -17.14,16.99 5.76,11.93 12.04,4.3 12.04,27.22 -10.87,2.53 -13.75,5.77 -22.11,10.2l-9.67 -7.33c-10.8,-10.62 -7.58,-26.81 -16.99,-37.42 -5.67,-6.38 -18.22,-9.82 -26.46,-3.28 -5.48,4.35 -3.8,8.89 -9.93,8.82 -7.69,-0.08 -5.25,-7.65 -3.26,-11.8 9.04,-9.04 27.21,11.07 27.21,-15.3l-6.81 -5.1c-3.46,0.8 -3.2,0.58 -6.26,2.23 -5.93,3.22 -1.58,1.04 -4.81,3.68 -8.06,6.57 -4.64,2.2 -14.43,5.98 -0.21,-0.51 -0.58,-1.77 -0.72,-1.5 -0.13,0.27 -0.52,-1.09 -0.7,-1.46l-3.68 -8.93c4.96,-3.33 8.38,-4.04 13.6,-6.81l0 -8.5c-14.58,-3.39 -6.72,3.32 -17,10.2 -5.59,-1.49 -5.6,-2.46 -8.5,-6.8 2.28,-9.78 5.11,-8.68 11.25,-14.3 8.25,-7.55 2.83,-10.51 -1.05,-16.3 -21.07,0 -8.97,10.96 -18.7,25.5 -6.96,-0.15 -7.4,-1.01 -11.91,-3.4 2.01,-8.59 7.1,-9.31 3.4,-17 -14.93,-7.17 -8.5,7.79 -8.5,17 -19.58,0 -15.3,4.36 -15.3,-23.8 -4.53,-3.04 -3.79,-5.45 -9.87,-4.85 -5.25,0.52 -6.68,4.17 -8.83,8.25 3.32,14.26 10.2,5.2 10.2,25.5 -4.41,1.18 -6.16,2.96 -10.2,5.1 -3.63,-6.86 -6.99,-25.15 -17.01,-10.2 1.88,7.04 2.73,4.58 7.5,7.81l4.41 4.09c-1.22,5.2 -2.65,6.54 -5.1,10.21 -17.02,-3.97 -10.44,-15.31 -28.91,-15.31 -3.11,4.65 -6.39,8.46 -2.52,14.25 4.16,6.22 10.25,4.46 19.52,4.46 8.63,9.95 1.7,8.49 5.1,17 -9.8,0 -21.22,-8.17 -22.23,1.83 -0.63,6.3 2.33,7.08 7.68,6 9.14,-1.85 -0.54,-3.76 11.15,-1.03l0 11.9c-19.63,1.64 -23.33,-2.04 -27.2,6.8 -1.91,3.01 -1.91,-4.27 -1.35,4.91 0.04,0.55 1.11,3.93 1.81,4.69 12.23,13.26 29.3,-27.12 36.95,5.71 -5.37,2.83 -21.95,8.58 -10.42,15.45 7.43,4.42 8.68,-9.77 17.22,-12.05 3.86,5.77 1.92,7.54 3.39,13.6z"/>
   <path class="fil1" d="M195.53 318.14c-15.87,18.69 -15.46,-11.13 -37.61,64.06 -7.49,25.42 -5.74,40.74 -0.85,68.03 1.7,9.49 -0.16,9.99 -7,15.93 -19.52,16.94 -129.16,55.2 -150.07,55.67l0 261.84c24.32,-5.67 57.47,-21.7 77.05,-33.47 6.2,-3.73 11.2,-6.1 17.17,-10.03 6.49,-4.27 10.85,-7.27 17.33,-11.58 5.99,-3.98 10.47,-7.39 15.96,-11.24l88.04 -78.6 39.36 -45.51 -35.6 -134.53c-15.68,-62.29 1.88,-41.93 -5.63,-75.8 -3.66,-16.47 0.71,-15.77 10.24,-26.55 6.53,-7.4 12.76,-14.42 20.7,-22.09 12.91,-12.8 9.82,-31.51 -1.48,-40.48 -12.94,0.98 -34.69,20.99 -47.61,24.35z"/>
   <path class="fil2" d="M416.12 474.57l35.71 120.37c-4.16,3.26 -133.02,42.25 -146.61,44.8l-35.78 -121.45 146.68 -43.72zm-184.3 -8.12c-2.18,21.17 48.31,171.24 58.07,194.06 9.21,21.56 10.86,26.86 38.47,22.93 37.51,-5.34 116.67,-26.26 140.75,-47.9 16.05,-14.43 -23.08,-122.85 -32.4,-147.13 -6.16,-16.02 -11.18,-30.23 -18.94,-44.3 -21.74,-39.39 -56.03,-13.74 -88.85,-5.94 -32.91,7.81 -64.4,20.36 -97.1,28.28z"/>
   <path class="fil3" d="M343.46 526.93c0,-5.2 1.97,-4.08 6.21,-5.7 0.07,-0.03 5.05,-1.57 5.19,-1.6 2.97,-0.81 0.71,-0.8 5.6,-1.21 6.22,9.29 5.67,14.36 10.2,23.81 19.98,-1.66 24.06,-16.19 30.61,11.9 -6.63,4.44 -13.59,7.65 -23.81,8.5 0.27,12.02 14.75,30.69 -8.49,30.89 -0.18,0 -0.74,-0.11 -0.88,-0.12 -6.44,-0.33 -6.97,-4.9 -8.32,-9.67 -1.78,-6.27 -1.99,-9.26 -4.41,-14.3 -25.95,12.45 -26.71,6.52 -30.6,-10.2 12.56,-8.41 23.8,-7.46 23.8,-11.9 0,-7.64 -5.1,-12.76 -5.1,-20.4zm-74.02 -8.64l35.78 121.45c13.59,-2.55 142.45,-41.54 146.61,-44.8l-35.71 -120.37 -146.68 43.72z"/>
   <path class="fil4" d="M231.82 466.45c32.7,-7.92 64.19,-20.47 97.1,-28.28 32.82,-7.8 67.11,-33.45 88.85,5.94 7.76,14.07 12.78,28.28 18.94,44.3 9.32,24.28 48.45,132.7 32.4,147.13 -24.08,21.64 -103.24,42.56 -140.75,47.9 -27.61,3.93 -29.26,-1.37 -38.47,-22.93 -9.76,-22.82 -60.25,-172.89 -58.07,-194.06zm12.8 -132.18c-7.94,7.67 -14.17,14.69 -20.7,22.09 -9.53,10.78 -13.9,10.08 -10.24,26.55 7.51,33.87 -10.05,13.51 5.63,75.8l35.6 134.53 2.61 7.73c4.48,15.74 29.1,82.05 35.59,91.92 7.86,11.95 19.52,9.06 34.91,7.33 31.09,-3.48 79.8,-17.85 108.47,-29.25 55.09,-21.9 57.73,-24.29 42.64,-79.08 -13.04,-47.36 -27.68,-93.58 -46.78,-138.55 -11.58,-27.26 -20.28,-34.89 -51.49,-42.71 -15.64,5.49 -27.25,17.96 -56.09,24.77 -10.68,2.51 -22.84,5.32 -31.64,-0.97 -15.72,-11.22 -1.81,-18.93 2.84,-25.07 -15.38,0.05 -24.8,2.16 -32.7,-8.26 -4.06,-10.59 17.63,-20.94 30.08,-30.6l-0.9 -1.42c-12.64,6.07 -20.41,19.49 -38.75,14.57 -9.73,-13.64 1.46,-28.82 9.62,-37.18l29.15 -25.95 -47.85 13.75z"/>
   <path class="fil1" d="M358.76 373.9l0.51 0.51c-0.04,-0.04 -0.68,-0.34 -0.51,-0.51zm-64.61 -5.1zm5.1 -5.1l-5.1 5.1zm5.1 -5.1l0.51 0.51c-0.04,-0.04 -0.68,-0.34 -0.51,-0.51zm3.4 -1.7l0.51 0.51c-0.03,-0.04 -0.68,-0.34 -0.51,-0.51zm-21.76 -86.72c2.21,8.26 3.76,17.03 6.21,25.9 2.89,10.43 3.99,5.48 7.1,9.99 3.42,4.98 1.96,6.3 -1.73,9.35l-29.15 25.95c-8.16,8.36 -19.35,23.54 -9.62,37.18 18.34,4.92 26.11,-8.5 38.75,-14.57l1.7 -0.28 -0.8 1.7c-12.45,9.66 -34.14,20.01 -30.08,30.6 7.9,10.42 17.32,8.31 32.7,8.26 -4.65,6.14 -18.56,13.85 -2.84,25.07 8.8,6.29 20.96,3.48 31.64,0.97 28.84,-6.81 40.45,-19.28 56.09,-24.77 5.27,-5.84 13.02,-12.89 7.41,-27.12 -4.27,-10.85 -13.85,-12.46 -26.11,-9.61 4.73,-8.94 10.71,-15.04 3.82,-27.62 -5.1,-9.31 -14.14,-10.83 -25.92,-8.09 10.05,-18.99 1.99,-35.7 -17.01,-35.7 6.08,-9.07 5.14,-4.03 13.61,-8.08 -12.95,-0.58 -17.63,-3.61 -26.38,-9.75 -4.07,-2.85 -6.26,-4.4 -10.22,-8.49 -3.86,-4 -4.63,-5.69 -9.31,-8.44 -2.5,4.81 -5.4,9.77 -9.86,7.55z"/>
   <path class="fil5" d="M190.43 287.46c6.77,1.36 11.59,-2.57 19.04,-5.12 7.03,-2.4 13.82,-4.54 20.39,-6.56 13.97,-4.29 27.92,-7.35 42.19,-10.79 0.32,-3.8 0.46,-4.73 1.08,-7.2 2.24,-8.89 -1.5,-2.77 4.01,-8.01 -1.52,-6.14 -2.56,-0.82 1.48,-6.91 3.53,-5.33 10.6,-9.78 12.71,-16.34 2.7,1.59 2.99,0.18 4.52,2.2 0.61,-6.19 -0.13,-3.01 3.27,-6.24 0.12,-0.12 6.23,-4.57 6.91,-5.04 2.64,-1.81 3.12,-1.99 6.31,-3.81l7.31 -5.73c-5.87,-1.71 -4.82,-17.25 -11.95,-24.44 -14.09,1.19 -101.64,30.24 -116.15,38.52 -6.93,3.96 -11.33,8.38 -15.31,15.3 -4.03,7 -6.37,14.4 -7.77,23.03 -2.52,15.49 -0.48,11.56 16.86,11.56 0.82,3.52 3.21,13.54 5.1,15.58z"/>
   <path class="fil6" d="M190.43 287.46c-3.47,10.71 0.19,22.65 5.1,30.68 12.92,-3.36 34.67,-23.37 47.61,-24.35 11.3,8.97 14.39,27.68 1.48,40.48l47.85 -13.75c3.69,-3.05 5.15,-4.37 1.73,-9.35 -3.11,-4.51 -4.21,0.44 -7.1,-9.99 -2.45,-8.87 -4,-17.64 -6.21,-25.9 -1.67,-5.07 -2.54,-5.05 -3.74,-10.2l-5.1 -0.09c-14.27,3.44 -28.22,6.5 -42.19,10.79 -6.57,2.02 -13.36,4.16 -20.39,6.56 -7.45,2.55 -12.27,6.48 -19.04,5.12z"/>
   <path class="fil7" d="M277.14 249.78c0.64,4.33 10.64,14.79 13.61,17.95 4.68,2.75 5.45,4.44 9.31,8.44 3.96,4.09 6.15,5.64 10.22,8.49 8.75,6.14 13.43,9.17 26.38,9.75l5.09 -0.51c-0.18,-8.52 1.36,-4.34 -3.39,-9.09 -12.07,-5.98 -25.28,-17.43 -30.64,-29.93 -4.55,-8.77 -7.81,-16.76 -11.87,-26.15 -1.53,-2.02 -1.82,-0.61 -4.52,-2.2 -2.11,6.56 -9.18,11.01 -12.71,16.34 -4.04,6.09 -3,0.77 -1.48,6.91z"/>
   <path class="fil1" d="M307.72 254.88c5.36,12.5 18.57,23.95 30.64,29.93 4.42,-4.9 10.2,-12.2 13.63,-18.01 9.86,-16.71 -6.5,-37.73 -25.29,-25.28 -6.63,4.39 -12.77,9.25 -18.98,13.36z"/>
   <path class="fil7" d="M307.7 183.47c7.13,7.19 6.08,22.73 11.95,24.44 7.1,0.46 14.92,-5.47 20.41,-9.14 -1.88,-8.05 -4.77,-15.09 -6.8,-23.8 -7.54,3.61 -17.68,4.78 -25.56,8.5z"/>
   <path class="fil8" d="M596.97 271.88c2.4,17.32 28.74,14.65 27.2,-3.22 -1.54,-18.01 -29.84,-15.76 -27.2,3.22z"/>
   <path class="fil8" d="M582.08 171.57c3.13,15.61 29.12,14.32 26.8,-4.97 -2.1,-17.39 -30.54,-13.71 -26.8,4.97z"/>
   <path class="fil8" d="M520.52 232.79c11.37,7.79 23.41,0.45 17.94,-11.1 -3.88,-8.2 -22.12,-8.92 -17.94,11.1z"/>
   <path class="fil8" d="M620.23 211.49c-0.9,19.29 16.97,17.23 19.32,7.42 1.5,-6.28 -1.03,-11.86 -7.56,-12.86 -6.25,-0.96 -7.83,2.37 -11.76,5.44z"/>
   <path class="fil8" d="M634.85 141.65c-10.61,23.77 20.73,25.43 15.9,2.71 -5.27,-3.47 -6.96,-4.98 -15.9,-2.71z"/>
   <path class="fil9" d="M396.17 132.47l-5.8 2.08 2.39 -5.49 -12.76 9.34c-1.64,1.54 -0.84,8.57 -0.84,11.06 8.55,4.52 8.46,4.52 17.01,0l0 -16.99z"/>
   <path class="fil8" d="M424.53 55.47c-2.44,7.93 2.37,16.65 9.41,9.36 6.51,-6.73 -3.89,-13.13 -9.41,-9.36z"/>
   <path class="fil8" d="M423.37 102.23c-9.31,-5.49 -14.75,3.21 -10.17,8.27 5.19,5.74 13.2,-0.06 10.17,-8.27z"/>
   <path class="fil8" d="M576.99 289.41c7.4,-15.68 -16.91,-9.31 -7.97,0.17 4.9,5.2 7.96,-0.17 7.97,-0.17z"/>
   <path class="fil8" d="M546.89 148.97c1.66,-8.75 -0.98,-12.5 -10.28,-8.14l0.77 9.02 9.51 -0.88z"/>
   <polygon class="fil8" points="583.57,226.11 582.77,217.15 572.65,217.54 573.35,226.79 "/>
   <path class="fil10" d="M409.77 164.77l0 3.4c4.59,-0.39 4.63,-0.8 8.5,-1.71 -2.72,-3.7 -3.46,-3.65 -8.5,-1.69z"/>
   <path class="fil10" d="M375.76 198.77l8.51 0c-3.62,-4.94 0.23,-3.21 -8.51,-3.4l0 3.4z"/>
   <polygon class="fil10" points="367.26,198.77 374.06,198.77 374.06,195.37 367.26,195.37 "/>
   <polygon class="fil10" points="404.67,198.77 411.47,198.77 411.47,195.37 404.67,195.37 "/>
   <path class="fil2" d="M399.57 169.87c8.74,-0.2 4.88,1.53 8.5,-3.41 -4.53,0.11 -7.83,-0.54 -8.5,3.41z"/>
   <path class="fil10" d="M380.86 174.97c8.74,-0.2 4.89,1.54 8.51,-3.4 -4.54,0.1 -7.83,-0.55 -8.51,3.4z"/>
   <path class="fil10" d="M370.66 178.37c4.59,-0.38 4.63,-0.8 8.5,-1.7 -3.46,-4.8 -5.14,-3.14 -8.5,1.7z"/>
   <path class="fil10" d="M355.36 163.06c6.65,-0.55 5.16,1.03 6.8,-5.1 -5.05,1.35 -4.4,0.67 -6.8,5.1z"/>
   <path class="fil10" d="M391.07 173.27c6.89,-1.61 5.12,-0.46 6.8,-5.1 -6.05,1.4 -5.57,0.32 -6.8,5.1z"/>
   <path class="fil10" d="M419.97 164.77l6.8 0 0 -3.41c-4,0.34 -6.19,-0.18 -6.8,3.41z"/>
   <path class="fil10" d="M362.16 180.07l6.8 0 0 -3.4c-3.99,0.33 -6.19,-0.18 -6.8,3.4z"/>
   <path class="fil10" d="M394.47 198.77l6.8 0c-3.83,-5.22 1.09,-2.74 -6.8,-3.4l0 3.4z"/>
   <path class="fil10" d="M385.97 198.77l6.8 0c-3.83,-5.22 1.09,-2.74 -6.8,-3.4l0 3.4z"/>
   <path class="fil2" d="M413.17 198.77l6.8 0c-3.83,-5.22 1.1,-2.74 -6.8,-3.4l0 3.4z"/>
   <path class="fil10" d="M353.66 180.07c3.78,5.23 -0.68,3.28 6.8,1.7 -2.46,-3.41 -1.94,-3.45 -6.8,-1.7z"/>
   <path class="fil10" d="M370.66 152.86c-6.89,1.61 -5.12,0.46 -6.8,5.1 5.94,-1.58 3.82,-0.64 6.8,-5.1z"/>
   <path class="fil10" d="M348.56 169.87c12.15,-6.43 2.42,-10.1 0,0z"/>
   <path class="fil2" d="M358.76 198.77l6.8 0c-1.89,-2.58 -5.72,-6.34 -6.8,0z"/>
   <path class="fil2" d="M370.66 152.86c5.94,-1.58 3.82,-0.64 6.8,-5.1 -5.94,1.59 -3.81,0.65 -6.8,5.1z"/>
   <polygon class="fil10" points="341.39,172.9 346.86,173.27 346.86,168.17 "/>
   <path class="fil10" d="M430.17 163.06l5.1 -3.4c-10.51,0.9 -2.69,0.69 -5.1,3.4z"/>
  </g>
 </g>
</svg>
